<mxfile host="Electron" modified="2023-07-24T08:50:14.241Z" agent="Mozilla/5.0 (Macintosh; Intel Mac OS X 10_15_7) AppleWebKit/537.36 (KHTML, like Gecko) draw.io/21.6.5 Chrome/114.0.5735.243 Electron/25.3.1 Safari/537.36" etag="VwQ_A0bZR3EoFOqzK3hj" version="21.6.5" type="device">
  <diagram name="Pagina-1" id="hgrwxVZnGzhNpDgreDcs">
    <mxGraphModel dx="1468" dy="1118" grid="1" gridSize="10" guides="1" tooltips="1" connect="1" arrows="1" fold="1" page="1" pageScale="1" pageWidth="1169" pageHeight="1654" math="0" shadow="1">
      <root>
        <mxCell id="0" />
        <mxCell id="1" parent="0" />
        <mxCell id="k7ykW4y_4t-j6-pi449O-276" value="" style="rounded=1;whiteSpace=wrap;html=1;" vertex="1" parent="1">
          <mxGeometry x="20" y="60" width="1450" height="870" as="geometry" />
        </mxCell>
        <mxCell id="k7ykW4y_4t-j6-pi449O-2" value="&lt;font style=&quot;font-size: 30px;&quot;&gt;Portion&lt;/font&gt;" style="text;html=1;strokeColor=none;fillColor=none;align=center;verticalAlign=middle;whiteSpace=wrap;rounded=0;" vertex="1" parent="1">
          <mxGeometry x="720" y="85" width="60" height="30" as="geometry" />
        </mxCell>
        <mxCell id="k7ykW4y_4t-j6-pi449O-85" value="" style="group" vertex="1" connectable="0" parent="1">
          <mxGeometry x="150" y="760" width="490" height="110" as="geometry" />
        </mxCell>
        <mxCell id="k7ykW4y_4t-j6-pi449O-83" value="" style="rounded=1;whiteSpace=wrap;html=1;" vertex="1" parent="k7ykW4y_4t-j6-pi449O-85">
          <mxGeometry width="490" height="110" as="geometry" />
        </mxCell>
        <mxCell id="k7ykW4y_4t-j6-pi449O-57" value="Timer" style="rounded=1;whiteSpace=wrap;html=1;" vertex="1" parent="k7ykW4y_4t-j6-pi449O-85">
          <mxGeometry x="18.14814814814815" y="52" width="72.5925925925926" height="30" as="geometry" />
        </mxCell>
        <mxCell id="k7ykW4y_4t-j6-pi449O-77" value="Progress bar" style="rounded=1;whiteSpace=wrap;html=1;" vertex="1" parent="k7ykW4y_4t-j6-pi449O-85">
          <mxGeometry x="190.55555555555557" y="49.5" width="81.66666666666667" height="35" as="geometry" />
        </mxCell>
        <mxCell id="k7ykW4y_4t-j6-pi449O-59" style="edgeStyle=orthogonalEdgeStyle;rounded=0;orthogonalLoop=1;jettySize=auto;html=1;" edge="1" parent="k7ykW4y_4t-j6-pi449O-85" source="k7ykW4y_4t-j6-pi449O-57" target="k7ykW4y_4t-j6-pi449O-77">
          <mxGeometry relative="1" as="geometry">
            <mxPoint x="208.7037037037037" y="67" as="targetPoint" />
          </mxGeometry>
        </mxCell>
        <mxCell id="k7ykW4y_4t-j6-pi449O-60" value="on timeout" style="edgeLabel;html=1;align=center;verticalAlign=middle;resizable=0;points=[];" vertex="1" connectable="0" parent="k7ykW4y_4t-j6-pi449O-59">
          <mxGeometry x="-0.2909" y="2" relative="1" as="geometry">
            <mxPoint x="12" y="2" as="offset" />
          </mxGeometry>
        </mxCell>
        <mxCell id="k7ykW4y_4t-j6-pi449O-80" value="Progress bar: children portion" style="rounded=1;whiteSpace=wrap;html=1;" vertex="1" parent="k7ykW4y_4t-j6-pi449O-85">
          <mxGeometry x="353.88888888888886" y="37" width="117.96296296296298" height="60" as="geometry" />
        </mxCell>
        <mxCell id="k7ykW4y_4t-j6-pi449O-81" style="edgeStyle=orthogonalEdgeStyle;rounded=0;orthogonalLoop=1;jettySize=auto;html=1;" edge="1" parent="k7ykW4y_4t-j6-pi449O-85" source="k7ykW4y_4t-j6-pi449O-77" target="k7ykW4y_4t-j6-pi449O-80">
          <mxGeometry relative="1" as="geometry" />
        </mxCell>
        <mxCell id="k7ykW4y_4t-j6-pi449O-82" value="reset" style="edgeLabel;html=1;align=center;verticalAlign=middle;resizable=0;points=[];" vertex="1" connectable="0" parent="k7ykW4y_4t-j6-pi449O-81">
          <mxGeometry x="-0.2636" y="1" relative="1" as="geometry">
            <mxPoint x="13" y="1" as="offset" />
          </mxGeometry>
        </mxCell>
        <mxCell id="k7ykW4y_4t-j6-pi449O-84" value="&lt;font style=&quot;font-size: 15px;&quot;&gt;On timer timeout&lt;/font&gt;" style="text;html=1;strokeColor=none;fillColor=none;align=center;verticalAlign=middle;whiteSpace=wrap;rounded=0;" vertex="1" parent="k7ykW4y_4t-j6-pi449O-85">
          <mxGeometry x="167.87037037037038" width="127.03703703703705" height="30" as="geometry" />
        </mxCell>
        <mxCell id="k7ykW4y_4t-j6-pi449O-181" value="" style="group" vertex="1" connectable="0" parent="1">
          <mxGeometry x="855" y="530" width="490" height="220" as="geometry" />
        </mxCell>
        <mxCell id="k7ykW4y_4t-j6-pi449O-53" value="" style="rounded=1;whiteSpace=wrap;html=1;container=0;" vertex="1" parent="k7ykW4y_4t-j6-pi449O-181">
          <mxGeometry width="490" height="220" as="geometry" />
        </mxCell>
        <mxCell id="k7ykW4y_4t-j6-pi449O-55" value="&lt;font style=&quot;font-size: 15px;&quot;&gt;Change portion name&lt;/font&gt;" style="text;html=1;strokeColor=none;fillColor=none;align=center;verticalAlign=middle;whiteSpace=wrap;rounded=0;" vertex="1" parent="k7ykW4y_4t-j6-pi449O-181">
          <mxGeometry x="154.35" y="5.742908545727109" width="181.29999999999998" height="24.28785607196402" as="geometry" />
        </mxCell>
        <mxCell id="k7ykW4y_4t-j6-pi449O-13" value="Name line-edit" style="rounded=1;whiteSpace=wrap;html=1;" vertex="1" parent="k7ykW4y_4t-j6-pi449O-181">
          <mxGeometry x="372.4" y="40.38434782608699" width="88.2" height="34.004347826086956" as="geometry" />
        </mxCell>
        <mxCell id="k7ykW4y_4t-j6-pi449O-21" value="Edit button" style="rounded=1;whiteSpace=wrap;html=1;" vertex="1" parent="k7ykW4y_4t-j6-pi449O-181">
          <mxGeometry x="9.8" y="91.99826086956523" width="78.4" height="48.57217391304348" as="geometry" />
        </mxCell>
        <mxCell id="k7ykW4y_4t-j6-pi449O-26" value="" style="edgeStyle=orthogonalEdgeStyle;rounded=0;orthogonalLoop=1;jettySize=auto;html=1;" edge="1" parent="k7ykW4y_4t-j6-pi449O-181" source="k7ykW4y_4t-j6-pi449O-21" target="k7ykW4y_4t-j6-pi449O-25">
          <mxGeometry relative="1" as="geometry">
            <mxPoint x="127.39999999999999" y="116.2818590704648" as="sourcePoint" />
            <mxPoint x="357.7" y="116.2818590704648" as="targetPoint" />
          </mxGeometry>
        </mxCell>
        <mxCell id="k7ykW4y_4t-j6-pi449O-27" value="on toggled" style="edgeLabel;html=1;align=center;verticalAlign=middle;resizable=0;points=[];" vertex="1" connectable="0" parent="k7ykW4y_4t-j6-pi449O-26">
          <mxGeometry x="-0.3818" relative="1" as="geometry">
            <mxPoint x="16" as="offset" />
          </mxGeometry>
        </mxCell>
        <mxCell id="k7ykW4y_4t-j6-pi449O-30" style="edgeStyle=orthogonalEdgeStyle;rounded=0;orthogonalLoop=1;jettySize=auto;html=1;" edge="1" parent="k7ykW4y_4t-j6-pi449O-181" source="k7ykW4y_4t-j6-pi449O-170" target="k7ykW4y_4t-j6-pi449O-13">
          <mxGeometry relative="1" as="geometry">
            <Array as="points">
              <mxPoint x="401.8" y="57.391304347826086" />
            </Array>
          </mxGeometry>
        </mxCell>
        <mxCell id="k7ykW4y_4t-j6-pi449O-25" value="pressed" style="rhombus;whiteSpace=wrap;html=1;" vertex="1" parent="k7ykW4y_4t-j6-pi449O-181">
          <mxGeometry x="176.4" y="91.99400299850076" width="68.6" height="48.57571214392804" as="geometry" />
        </mxCell>
        <mxCell id="k7ykW4y_4t-j6-pi449O-167" value="" style="edgeStyle=orthogonalEdgeStyle;rounded=0;orthogonalLoop=1;jettySize=auto;html=1;" edge="1" parent="k7ykW4y_4t-j6-pi449O-181" source="k7ykW4y_4t-j6-pi449O-25" target="k7ykW4y_4t-j6-pi449O-170">
          <mxGeometry relative="1" as="geometry">
            <mxPoint x="210.7" y="91.82608695652175" as="sourcePoint" />
            <mxPoint x="411.59999999999997" y="91.82608695652175" as="targetPoint" />
            <Array as="points">
              <mxPoint x="210.7" y="57.391304347826086" />
            </Array>
          </mxGeometry>
        </mxCell>
        <mxCell id="k7ykW4y_4t-j6-pi449O-169" value="true" style="edgeLabel;html=1;align=center;verticalAlign=middle;resizable=0;points=[];" vertex="1" connectable="0" parent="k7ykW4y_4t-j6-pi449O-167">
          <mxGeometry x="-0.8681" y="-1" relative="1" as="geometry">
            <mxPoint x="-1" y="-9" as="offset" />
          </mxGeometry>
        </mxCell>
        <mxCell id="k7ykW4y_4t-j6-pi449O-170" value="show popup" style="ellipse;whiteSpace=wrap;html=1;" vertex="1" parent="k7ykW4y_4t-j6-pi449O-181">
          <mxGeometry x="276.91859999999997" y="38.26086956521739" width="68.6" height="38.26086956521739" as="geometry" />
        </mxCell>
        <mxCell id="k7ykW4y_4t-j6-pi449O-172" value="" style="edgeStyle=orthogonalEdgeStyle;rounded=0;orthogonalLoop=1;jettySize=auto;html=1;" edge="1" parent="k7ykW4y_4t-j6-pi449O-181" source="k7ykW4y_4t-j6-pi449O-25" target="k7ykW4y_4t-j6-pi449O-171">
          <mxGeometry relative="1" as="geometry">
            <mxPoint x="210.7" y="140.6086956521739" as="sourcePoint" />
            <mxPoint x="411.59999999999997" y="126.26086956521739" as="targetPoint" />
            <Array as="points">
              <mxPoint x="210.7" y="172.17391304347828" />
            </Array>
          </mxGeometry>
        </mxCell>
        <mxCell id="k7ykW4y_4t-j6-pi449O-174" value="false" style="edgeLabel;html=1;align=center;verticalAlign=middle;resizable=0;points=[];" vertex="1" connectable="0" parent="k7ykW4y_4t-j6-pi449O-172">
          <mxGeometry x="-0.9164" y="2" relative="1" as="geometry">
            <mxPoint x="-2" y="9" as="offset" />
          </mxGeometry>
        </mxCell>
        <mxCell id="k7ykW4y_4t-j6-pi449O-171" value="hide popup" style="ellipse;whiteSpace=wrap;html=1;" vertex="1" parent="k7ykW4y_4t-j6-pi449O-181">
          <mxGeometry x="274.4" y="153.04347826086956" width="68.6" height="38.26086956521739" as="geometry" />
        </mxCell>
        <mxCell id="k7ykW4y_4t-j6-pi449O-179" value="update portion name label" style="ellipse;whiteSpace=wrap;html=1;" vertex="1" parent="k7ykW4y_4t-j6-pi449O-181">
          <mxGeometry x="372.4" y="143.47826086956522" width="98" height="57.391304347826086" as="geometry" />
        </mxCell>
        <mxCell id="k7ykW4y_4t-j6-pi449O-180" value="" style="edgeStyle=orthogonalEdgeStyle;rounded=0;orthogonalLoop=1;jettySize=auto;html=1;" edge="1" parent="k7ykW4y_4t-j6-pi449O-181" source="k7ykW4y_4t-j6-pi449O-171" target="k7ykW4y_4t-j6-pi449O-179">
          <mxGeometry relative="1" as="geometry" />
        </mxCell>
        <mxCell id="k7ykW4y_4t-j6-pi449O-208" value="" style="group" vertex="1" connectable="0" parent="1">
          <mxGeometry x="60" y="160" width="685" height="340" as="geometry" />
        </mxCell>
        <mxCell id="k7ykW4y_4t-j6-pi449O-183" value="" style="rounded=1;whiteSpace=wrap;html=1;container=0;" vertex="1" parent="k7ykW4y_4t-j6-pi449O-208">
          <mxGeometry width="685" height="340" as="geometry" />
        </mxCell>
        <mxCell id="k7ykW4y_4t-j6-pi449O-184" value="&lt;font style=&quot;font-size: 15px;&quot;&gt;Add/remove child portion&lt;/font&gt;" style="text;html=1;strokeColor=none;fillColor=none;align=center;verticalAlign=middle;whiteSpace=wrap;rounded=0;" vertex="1" parent="k7ykW4y_4t-j6-pi449O-208">
          <mxGeometry x="249.99999999999994" y="0.004069535480163832" width="185" height="26.16129951553149" as="geometry" />
        </mxCell>
        <mxCell id="k7ykW4y_4t-j6-pi449O-185" value="Portion checkboxes" style="rounded=1;whiteSpace=wrap;html=1;" vertex="1" parent="k7ykW4y_4t-j6-pi449O-208">
          <mxGeometry x="380" y="43.49939393939397" width="100" height="36.627272727272725" as="geometry" />
        </mxCell>
        <mxCell id="k7ykW4y_4t-j6-pi449O-186" value="Edit button" style="rounded=1;whiteSpace=wrap;html=1;" vertex="1" parent="k7ykW4y_4t-j6-pi449O-208">
          <mxGeometry x="10" y="99.09454545454545" width="80" height="52.31878787878788" as="geometry" />
        </mxCell>
        <mxCell id="k7ykW4y_4t-j6-pi449O-187" value="" style="edgeStyle=orthogonalEdgeStyle;rounded=0;orthogonalLoop=1;jettySize=auto;html=1;" edge="1" parent="k7ykW4y_4t-j6-pi449O-208" source="k7ykW4y_4t-j6-pi449O-186" target="k7ykW4y_4t-j6-pi449O-190">
          <mxGeometry relative="1" as="geometry">
            <mxPoint x="130" y="125.2512586681866" as="sourcePoint" />
            <mxPoint x="365" y="125.2512586681866" as="targetPoint" />
          </mxGeometry>
        </mxCell>
        <mxCell id="k7ykW4y_4t-j6-pi449O-188" value="on toggled" style="edgeLabel;html=1;align=center;verticalAlign=middle;resizable=0;points=[];" vertex="1" connectable="0" parent="k7ykW4y_4t-j6-pi449O-187">
          <mxGeometry x="-0.3818" relative="1" as="geometry">
            <mxPoint x="16" as="offset" />
          </mxGeometry>
        </mxCell>
        <mxCell id="k7ykW4y_4t-j6-pi449O-189" style="edgeStyle=orthogonalEdgeStyle;rounded=0;orthogonalLoop=1;jettySize=auto;html=1;" edge="1" parent="k7ykW4y_4t-j6-pi449O-208" source="k7ykW4y_4t-j6-pi449O-193" target="k7ykW4y_4t-j6-pi449O-185">
          <mxGeometry relative="1" as="geometry">
            <Array as="points">
              <mxPoint x="410" y="61.81818181818181" />
            </Array>
          </mxGeometry>
        </mxCell>
        <mxCell id="k7ykW4y_4t-j6-pi449O-190" value="pressed" style="rhombus;whiteSpace=wrap;html=1;" vertex="1" parent="k7ykW4y_4t-j6-pi449O-208">
          <mxGeometry x="180" y="99.08995915265508" width="70" height="52.32259903106298" as="geometry" />
        </mxCell>
        <mxCell id="k7ykW4y_4t-j6-pi449O-191" value="" style="edgeStyle=orthogonalEdgeStyle;rounded=0;orthogonalLoop=1;jettySize=auto;html=1;" edge="1" parent="k7ykW4y_4t-j6-pi449O-208" source="k7ykW4y_4t-j6-pi449O-190" target="k7ykW4y_4t-j6-pi449O-193">
          <mxGeometry relative="1" as="geometry">
            <mxPoint x="215" y="98.9090909090909" as="sourcePoint" />
            <mxPoint x="420" y="98.9090909090909" as="targetPoint" />
            <Array as="points">
              <mxPoint x="215" y="61.81818181818181" />
            </Array>
          </mxGeometry>
        </mxCell>
        <mxCell id="k7ykW4y_4t-j6-pi449O-192" value="true" style="edgeLabel;html=1;align=center;verticalAlign=middle;resizable=0;points=[];" vertex="1" connectable="0" parent="k7ykW4y_4t-j6-pi449O-191">
          <mxGeometry x="-0.8681" y="-1" relative="1" as="geometry">
            <mxPoint x="-1" y="-9" as="offset" />
          </mxGeometry>
        </mxCell>
        <mxCell id="k7ykW4y_4t-j6-pi449O-193" value="show popup" style="ellipse;whiteSpace=wrap;html=1;" vertex="1" parent="k7ykW4y_4t-j6-pi449O-208">
          <mxGeometry x="282.56999999999994" y="41.21212121212121" width="70" height="41.21212121212121" as="geometry" />
        </mxCell>
        <mxCell id="k7ykW4y_4t-j6-pi449O-194" value="" style="edgeStyle=orthogonalEdgeStyle;rounded=0;orthogonalLoop=1;jettySize=auto;html=1;" edge="1" parent="k7ykW4y_4t-j6-pi449O-208" source="k7ykW4y_4t-j6-pi449O-190" target="k7ykW4y_4t-j6-pi449O-196">
          <mxGeometry relative="1" as="geometry">
            <mxPoint x="215" y="151.45454545454544" as="sourcePoint" />
            <mxPoint x="420" y="136" as="targetPoint" />
            <Array as="points">
              <mxPoint x="215" y="185.45454545454544" />
            </Array>
          </mxGeometry>
        </mxCell>
        <mxCell id="k7ykW4y_4t-j6-pi449O-195" value="false" style="edgeLabel;html=1;align=center;verticalAlign=middle;resizable=0;points=[];" vertex="1" connectable="0" parent="k7ykW4y_4t-j6-pi449O-194">
          <mxGeometry x="-0.9164" y="2" relative="1" as="geometry">
            <mxPoint x="-2" y="9" as="offset" />
          </mxGeometry>
        </mxCell>
        <mxCell id="k7ykW4y_4t-j6-pi449O-196" value="hide popup" style="ellipse;whiteSpace=wrap;html=1;" vertex="1" parent="k7ykW4y_4t-j6-pi449O-208">
          <mxGeometry x="280" y="164.84848484848484" width="70" height="41.21212121212121" as="geometry" />
        </mxCell>
        <mxCell id="k7ykW4y_4t-j6-pi449O-197" value="Update children portion list" style="ellipse;whiteSpace=wrap;html=1;" vertex="1" parent="k7ykW4y_4t-j6-pi449O-208">
          <mxGeometry x="380" y="154.54545454545453" width="100" height="61.81818181818181" as="geometry" />
        </mxCell>
        <mxCell id="k7ykW4y_4t-j6-pi449O-198" value="" style="edgeStyle=orthogonalEdgeStyle;rounded=0;orthogonalLoop=1;jettySize=auto;html=1;" edge="1" parent="k7ykW4y_4t-j6-pi449O-208" source="k7ykW4y_4t-j6-pi449O-196" target="k7ykW4y_4t-j6-pi449O-197">
          <mxGeometry relative="1" as="geometry" />
        </mxCell>
        <mxCell id="k7ykW4y_4t-j6-pi449O-200" value="Update progress bar" style="ellipse;whiteSpace=wrap;html=1;" vertex="1" parent="k7ykW4y_4t-j6-pi449O-208">
          <mxGeometry x="569.21" y="154.54545454545453" width="100" height="61.81818181818181" as="geometry" />
        </mxCell>
        <mxCell id="k7ykW4y_4t-j6-pi449O-201" value="" style="edgeStyle=orthogonalEdgeStyle;rounded=0;orthogonalLoop=1;jettySize=auto;html=1;" edge="1" parent="k7ykW4y_4t-j6-pi449O-208" source="k7ykW4y_4t-j6-pi449O-197" target="k7ykW4y_4t-j6-pi449O-200">
          <mxGeometry relative="1" as="geometry" />
        </mxCell>
        <mxCell id="k7ykW4y_4t-j6-pi449O-202" value="on updated" style="edgeLabel;html=1;align=center;verticalAlign=middle;resizable=0;points=[];" vertex="1" connectable="0" parent="k7ykW4y_4t-j6-pi449O-201">
          <mxGeometry x="-0.2217" y="-1" relative="1" as="geometry">
            <mxPoint x="6" y="-1" as="offset" />
          </mxGeometry>
        </mxCell>
        <mxCell id="k7ykW4y_4t-j6-pi449O-203" value="Progress bar" style="rounded=1;whiteSpace=wrap;html=1;container=0;" vertex="1" parent="k7ykW4y_4t-j6-pi449O-208">
          <mxGeometry x="550.79" y="267.8787878787879" width="118.42" height="36.06060606060606" as="geometry" />
        </mxCell>
        <mxCell id="k7ykW4y_4t-j6-pi449O-204" style="edgeStyle=orthogonalEdgeStyle;rounded=0;orthogonalLoop=1;jettySize=auto;html=1;" edge="1" parent="k7ykW4y_4t-j6-pi449O-208" target="k7ykW4y_4t-j6-pi449O-203" source="k7ykW4y_4t-j6-pi449O-200">
          <mxGeometry relative="1" as="geometry">
            <mxPoint x="245" y="288.4848484848485" as="sourcePoint" />
            <Array as="points">
              <mxPoint x="619" y="257.57575757575756" />
              <mxPoint x="619" y="257.57575757575756" />
            </Array>
          </mxGeometry>
        </mxCell>
        <mxCell id="k7ykW4y_4t-j6-pi449O-205" value="on updated" style="edgeLabel;html=1;align=center;verticalAlign=middle;resizable=0;points=[];container=0;" vertex="1" connectable="0" parent="k7ykW4y_4t-j6-pi449O-204">
          <mxGeometry x="-0.275" y="1" relative="1" as="geometry">
            <mxPoint x="-1" as="offset" />
          </mxGeometry>
        </mxCell>
        <mxCell id="k7ykW4y_4t-j6-pi449O-206" value="" style="edgeStyle=orthogonalEdgeStyle;rounded=0;orthogonalLoop=1;jettySize=auto;html=1;" edge="1" parent="k7ykW4y_4t-j6-pi449O-208" source="k7ykW4y_4t-j6-pi449O-203" target="k7ykW4y_4t-j6-pi449O-207">
          <mxGeometry relative="1" as="geometry">
            <mxPoint x="467" y="283.3333333333333" as="sourcePoint" />
            <mxPoint x="650" y="283.3333333333333" as="targetPoint" />
          </mxGeometry>
        </mxCell>
        <mxCell id="k7ykW4y_4t-j6-pi449O-207" value="Update upper portions" style="ellipse;whiteSpace=wrap;html=1;" vertex="1" parent="k7ykW4y_4t-j6-pi449O-208">
          <mxGeometry x="385" y="255" width="101.77" height="61.81818181818181" as="geometry" />
        </mxCell>
        <mxCell id="k7ykW4y_4t-j6-pi449O-260" value="" style="group" vertex="1" connectable="0" parent="1">
          <mxGeometry x="102.5" y="565" width="600" height="150" as="geometry" />
        </mxCell>
        <mxCell id="k7ykW4y_4t-j6-pi449O-50" value="" style="rounded=1;whiteSpace=wrap;html=1;container=0;" vertex="1" parent="k7ykW4y_4t-j6-pi449O-260">
          <mxGeometry width="600" height="150" as="geometry" />
        </mxCell>
        <mxCell id="k7ykW4y_4t-j6-pi449O-3" value="Plus button" style="rounded=1;whiteSpace=wrap;html=1;container=0;" vertex="1" parent="k7ykW4y_4t-j6-pi449O-260">
          <mxGeometry x="9.108910891089096" y="40" width="109.3069306930693" height="40" as="geometry" />
        </mxCell>
        <mxCell id="k7ykW4y_4t-j6-pi449O-4" value="Minus button" style="rounded=1;whiteSpace=wrap;html=1;container=0;" vertex="1" parent="k7ykW4y_4t-j6-pi449O-260">
          <mxGeometry x="9.108910891089096" y="90" width="109.3069306930693" height="40" as="geometry" />
        </mxCell>
        <mxCell id="k7ykW4y_4t-j6-pi449O-6" style="edgeStyle=orthogonalEdgeStyle;rounded=0;orthogonalLoop=1;jettySize=auto;html=1;exitX=1;exitY=0.5;exitDx=0;exitDy=0;" edge="1" parent="k7ykW4y_4t-j6-pi449O-260" source="k7ykW4y_4t-j6-pi449O-3" target="k7ykW4y_4t-j6-pi449O-160">
          <mxGeometry relative="1" as="geometry">
            <Array as="points">
              <mxPoint x="220" y="60" />
              <mxPoint x="220" y="80" />
            </Array>
          </mxGeometry>
        </mxCell>
        <mxCell id="k7ykW4y_4t-j6-pi449O-8" value="on button down" style="edgeLabel;html=1;align=center;verticalAlign=middle;resizable=0;points=[];container=0;" vertex="1" connectable="0" parent="k7ykW4y_4t-j6-pi449O-6">
          <mxGeometry x="-0.7083" y="2" relative="1" as="geometry">
            <mxPoint x="16" y="2" as="offset" />
          </mxGeometry>
        </mxCell>
        <mxCell id="k7ykW4y_4t-j6-pi449O-48" value="&lt;font style=&quot;font-size: 15px;&quot;&gt;Update progress bar with +/- buttons&lt;/font&gt;" style="text;html=1;strokeColor=none;fillColor=none;align=center;verticalAlign=middle;whiteSpace=wrap;rounded=0;container=0;" vertex="1" parent="k7ykW4y_4t-j6-pi449O-260">
          <mxGeometry x="159.68" width="280.64" height="30" as="geometry" />
        </mxCell>
        <mxCell id="k7ykW4y_4t-j6-pi449O-161" value="" style="edgeStyle=orthogonalEdgeStyle;rounded=0;orthogonalLoop=1;jettySize=auto;html=1;" edge="1" parent="k7ykW4y_4t-j6-pi449O-260" source="k7ykW4y_4t-j6-pi449O-4" target="k7ykW4y_4t-j6-pi449O-160">
          <mxGeometry relative="1" as="geometry">
            <mxPoint x="118" y="100" as="sourcePoint" />
            <mxPoint x="355" y="80" as="targetPoint" />
            <Array as="points">
              <mxPoint x="220" y="110" />
              <mxPoint x="220" y="80" />
            </Array>
          </mxGeometry>
        </mxCell>
        <mxCell id="k7ykW4y_4t-j6-pi449O-162" value="on button down" style="edgeLabel;html=1;align=center;verticalAlign=middle;resizable=0;points=[];container=0;" vertex="1" connectable="0" parent="k7ykW4y_4t-j6-pi449O-161">
          <mxGeometry x="-0.5687" y="1" relative="1" as="geometry">
            <mxPoint as="offset" />
          </mxGeometry>
        </mxCell>
        <mxCell id="k7ykW4y_4t-j6-pi449O-160" value="Update progress label" style="ellipse;whiteSpace=wrap;html=1;" vertex="1" parent="k7ykW4y_4t-j6-pi449O-260">
          <mxGeometry x="294.47" y="50" width="101.77" height="60" as="geometry" />
        </mxCell>
        <mxCell id="k7ykW4y_4t-j6-pi449O-164" value="Update upper portions" style="ellipse;whiteSpace=wrap;html=1;" vertex="1" parent="k7ykW4y_4t-j6-pi449O-260">
          <mxGeometry x="490" y="50" width="101.77" height="60" as="geometry" />
        </mxCell>
        <mxCell id="k7ykW4y_4t-j6-pi449O-19" style="edgeStyle=orthogonalEdgeStyle;rounded=0;orthogonalLoop=1;jettySize=auto;html=1;" edge="1" parent="k7ykW4y_4t-j6-pi449O-260" source="k7ykW4y_4t-j6-pi449O-160" target="k7ykW4y_4t-j6-pi449O-164">
          <mxGeometry relative="1" as="geometry">
            <mxPoint x="529.3044554455441" y="80.00000000000045" as="sourcePoint" />
            <mxPoint x="500.00465346534656" y="80" as="targetPoint" />
            <Array as="points" />
          </mxGeometry>
        </mxCell>
        <mxCell id="k7ykW4y_4t-j6-pi449O-20" value="on updated" style="edgeLabel;html=1;align=center;verticalAlign=middle;resizable=0;points=[];container=0;" vertex="1" connectable="0" parent="k7ykW4y_4t-j6-pi449O-19">
          <mxGeometry x="-0.275" y="1" relative="1" as="geometry">
            <mxPoint x="10" y="1" as="offset" />
          </mxGeometry>
        </mxCell>
        <mxCell id="k7ykW4y_4t-j6-pi449O-275" value="" style="group" vertex="1" connectable="0" parent="1">
          <mxGeometry x="780" y="189" width="640" height="282" as="geometry" />
        </mxCell>
        <mxCell id="k7ykW4y_4t-j6-pi449O-210" value="" style="rounded=1;whiteSpace=wrap;html=1;container=0;" vertex="1" parent="k7ykW4y_4t-j6-pi449O-275">
          <mxGeometry width="640" height="282" as="geometry" />
        </mxCell>
        <mxCell id="k7ykW4y_4t-j6-pi449O-211" value="&lt;font style=&quot;font-size: 15px;&quot;&gt;Remove portion&lt;/font&gt;" style="text;html=1;strokeColor=none;fillColor=none;align=center;verticalAlign=middle;whiteSpace=wrap;rounded=0;container=0;" vertex="1" parent="k7ykW4y_4t-j6-pi449O-275">
          <mxGeometry x="242.5" y="0.003949843260215857" width="185" height="25.391849529780565" as="geometry" />
        </mxCell>
        <mxCell id="k7ykW4y_4t-j6-pi449O-212" value="Remove button" style="rounded=1;whiteSpace=wrap;html=1;container=0;" vertex="1" parent="k7ykW4y_4t-j6-pi449O-275">
          <mxGeometry x="359" y="42.22000000000003" width="90" height="35.55" as="geometry" />
        </mxCell>
        <mxCell id="k7ykW4y_4t-j6-pi449O-213" value="Edit button" style="rounded=1;whiteSpace=wrap;html=1;container=0;" vertex="1" parent="k7ykW4y_4t-j6-pi449O-275">
          <mxGeometry x="10" y="96.18000000000006" width="80" height="50.78" as="geometry" />
        </mxCell>
        <mxCell id="k7ykW4y_4t-j6-pi449O-214" value="" style="edgeStyle=orthogonalEdgeStyle;rounded=0;orthogonalLoop=1;jettySize=auto;html=1;" edge="1" parent="k7ykW4y_4t-j6-pi449O-275" source="k7ykW4y_4t-j6-pi449O-213" target="k7ykW4y_4t-j6-pi449O-217">
          <mxGeometry relative="1" as="geometry">
            <mxPoint x="130" y="121.56739811912234" as="sourcePoint" />
            <mxPoint x="365" y="121.56739811912234" as="targetPoint" />
          </mxGeometry>
        </mxCell>
        <mxCell id="k7ykW4y_4t-j6-pi449O-215" value="on toggled" style="edgeLabel;html=1;align=center;verticalAlign=middle;resizable=0;points=[];container=0;" vertex="1" connectable="0" parent="k7ykW4y_4t-j6-pi449O-214">
          <mxGeometry x="-0.3818" relative="1" as="geometry">
            <mxPoint x="16" as="offset" />
          </mxGeometry>
        </mxCell>
        <mxCell id="k7ykW4y_4t-j6-pi449O-216" style="edgeStyle=orthogonalEdgeStyle;rounded=0;orthogonalLoop=1;jettySize=auto;html=1;" edge="1" parent="k7ykW4y_4t-j6-pi449O-275" source="k7ykW4y_4t-j6-pi449O-220" target="k7ykW4y_4t-j6-pi449O-212">
          <mxGeometry relative="1" as="geometry">
            <Array as="points">
              <mxPoint x="389" y="60" />
            </Array>
          </mxGeometry>
        </mxCell>
        <mxCell id="k7ykW4y_4t-j6-pi449O-217" value="pressed" style="rhombus;whiteSpace=wrap;html=1;container=0;" vertex="1" parent="k7ykW4y_4t-j6-pi449O-275">
          <mxGeometry x="180" y="96.1755485893417" width="70" height="50.78369905956113" as="geometry" />
        </mxCell>
        <mxCell id="k7ykW4y_4t-j6-pi449O-218" value="" style="edgeStyle=orthogonalEdgeStyle;rounded=0;orthogonalLoop=1;jettySize=auto;html=1;" edge="1" parent="k7ykW4y_4t-j6-pi449O-275" source="k7ykW4y_4t-j6-pi449O-217" target="k7ykW4y_4t-j6-pi449O-220">
          <mxGeometry relative="1" as="geometry">
            <mxPoint x="215" y="96" as="sourcePoint" />
            <mxPoint x="420" y="96" as="targetPoint" />
            <Array as="points">
              <mxPoint x="215" y="60" />
            </Array>
          </mxGeometry>
        </mxCell>
        <mxCell id="k7ykW4y_4t-j6-pi449O-219" value="true" style="edgeLabel;html=1;align=center;verticalAlign=middle;resizable=0;points=[];container=0;" vertex="1" connectable="0" parent="k7ykW4y_4t-j6-pi449O-218">
          <mxGeometry x="-0.8681" y="-1" relative="1" as="geometry">
            <mxPoint x="-1" y="-9" as="offset" />
          </mxGeometry>
        </mxCell>
        <mxCell id="k7ykW4y_4t-j6-pi449O-220" value="show popup" style="ellipse;whiteSpace=wrap;html=1;container=0;" vertex="1" parent="k7ykW4y_4t-j6-pi449O-275">
          <mxGeometry x="261.57" y="40" width="70" height="40" as="geometry" />
        </mxCell>
        <mxCell id="k7ykW4y_4t-j6-pi449O-221" value="" style="edgeStyle=orthogonalEdgeStyle;rounded=0;orthogonalLoop=1;jettySize=auto;html=1;" edge="1" parent="k7ykW4y_4t-j6-pi449O-275" source="k7ykW4y_4t-j6-pi449O-217" target="k7ykW4y_4t-j6-pi449O-223">
          <mxGeometry relative="1" as="geometry">
            <mxPoint x="215" y="147" as="sourcePoint" />
            <mxPoint x="420" y="132" as="targetPoint" />
            <Array as="points">
              <mxPoint x="215" y="180" />
            </Array>
          </mxGeometry>
        </mxCell>
        <mxCell id="k7ykW4y_4t-j6-pi449O-222" value="false" style="edgeLabel;html=1;align=center;verticalAlign=middle;resizable=0;points=[];container=0;" vertex="1" connectable="0" parent="k7ykW4y_4t-j6-pi449O-221">
          <mxGeometry x="-0.9164" y="2" relative="1" as="geometry">
            <mxPoint x="-2" y="9" as="offset" />
          </mxGeometry>
        </mxCell>
        <mxCell id="k7ykW4y_4t-j6-pi449O-223" value="hide popup" style="ellipse;whiteSpace=wrap;html=1;container=0;" vertex="1" parent="k7ykW4y_4t-j6-pi449O-275">
          <mxGeometry x="180" y="178.26999999999998" width="70" height="40" as="geometry" />
        </mxCell>
        <mxCell id="k7ykW4y_4t-j6-pi449O-226" value="delete portion" style="ellipse;whiteSpace=wrap;html=1;container=0;" vertex="1" parent="k7ykW4y_4t-j6-pi449O-275">
          <mxGeometry x="364" y="101.57000000000005" width="80" height="40" as="geometry" />
        </mxCell>
        <mxCell id="k7ykW4y_4t-j6-pi449O-228" style="edgeStyle=orthogonalEdgeStyle;rounded=0;orthogonalLoop=1;jettySize=auto;html=1;" edge="1" parent="k7ykW4y_4t-j6-pi449O-275" source="k7ykW4y_4t-j6-pi449O-212" target="k7ykW4y_4t-j6-pi449O-226">
          <mxGeometry relative="1" as="geometry" />
        </mxCell>
        <mxCell id="k7ykW4y_4t-j6-pi449O-229" value="cascade delete?" style="rhombus;whiteSpace=wrap;html=1;container=0;" vertex="1" parent="k7ykW4y_4t-j6-pi449O-275">
          <mxGeometry x="361.5" y="163.26999999999998" width="85" height="70" as="geometry" />
        </mxCell>
        <mxCell id="k7ykW4y_4t-j6-pi449O-230" style="edgeStyle=orthogonalEdgeStyle;rounded=0;orthogonalLoop=1;jettySize=auto;html=1;" edge="1" parent="k7ykW4y_4t-j6-pi449O-275" source="k7ykW4y_4t-j6-pi449O-226" target="k7ykW4y_4t-j6-pi449O-229">
          <mxGeometry relative="1" as="geometry" />
        </mxCell>
        <mxCell id="k7ykW4y_4t-j6-pi449O-261" value="Update upper portions" style="ellipse;whiteSpace=wrap;html=1;" vertex="1" parent="k7ykW4y_4t-j6-pi449O-275">
          <mxGeometry x="520" y="138.26999999999998" width="91" height="50" as="geometry" />
        </mxCell>
        <mxCell id="k7ykW4y_4t-j6-pi449O-262" style="edgeStyle=orthogonalEdgeStyle;rounded=0;orthogonalLoop=1;jettySize=auto;html=1;" edge="1" parent="k7ykW4y_4t-j6-pi449O-275" source="k7ykW4y_4t-j6-pi449O-229" target="k7ykW4y_4t-j6-pi449O-261">
          <mxGeometry relative="1" as="geometry">
            <Array as="points">
              <mxPoint x="481" y="198" />
              <mxPoint x="481" y="164" />
            </Array>
          </mxGeometry>
        </mxCell>
        <mxCell id="k7ykW4y_4t-j6-pi449O-263" value="Update upper portions children list" style="ellipse;whiteSpace=wrap;html=1;" vertex="1" parent="k7ykW4y_4t-j6-pi449O-275">
          <mxGeometry x="515" y="204" width="101" height="61.82" as="geometry" />
        </mxCell>
        <mxCell id="k7ykW4y_4t-j6-pi449O-264" style="edgeStyle=orthogonalEdgeStyle;rounded=0;orthogonalLoop=1;jettySize=auto;html=1;" edge="1" parent="k7ykW4y_4t-j6-pi449O-275" source="k7ykW4y_4t-j6-pi449O-229" target="k7ykW4y_4t-j6-pi449O-263">
          <mxGeometry relative="1" as="geometry" />
        </mxCell>
        <mxCell id="k7ykW4y_4t-j6-pi449O-265" value="yes" style="edgeLabel;html=1;align=center;verticalAlign=middle;resizable=0;points=[];" vertex="1" connectable="0" parent="k7ykW4y_4t-j6-pi449O-264">
          <mxGeometry x="-0.742" y="2" relative="1" as="geometry">
            <mxPoint as="offset" />
          </mxGeometry>
        </mxCell>
        <mxCell id="k7ykW4y_4t-j6-pi449O-270" value="" style="ellipse;whiteSpace=wrap;html=1;aspect=fixed;fillColor=#000000;" vertex="1" parent="k7ykW4y_4t-j6-pi449O-275">
          <mxGeometry x="289" y="188.26999999999998" width="20" height="20" as="geometry" />
        </mxCell>
        <mxCell id="k7ykW4y_4t-j6-pi449O-273" style="edgeStyle=orthogonalEdgeStyle;rounded=0;orthogonalLoop=1;jettySize=auto;html=1;" edge="1" parent="k7ykW4y_4t-j6-pi449O-275" source="k7ykW4y_4t-j6-pi449O-229" target="k7ykW4y_4t-j6-pi449O-270">
          <mxGeometry relative="1" as="geometry" />
        </mxCell>
        <mxCell id="k7ykW4y_4t-j6-pi449O-274" value="no" style="edgeLabel;html=1;align=center;verticalAlign=middle;resizable=0;points=[];" vertex="1" connectable="0" parent="k7ykW4y_4t-j6-pi449O-273">
          <mxGeometry x="-0.1613" y="1" relative="1" as="geometry">
            <mxPoint y="-3" as="offset" />
          </mxGeometry>
        </mxCell>
      </root>
    </mxGraphModel>
  </diagram>
</mxfile>
